<svg xmlns="http://www.w3.org/2000/svg" width="512" height="512" viewBox="0 0 512 512" version="1.1">
	<path d="M 0 256.002 L 0 512.004 256.250 511.752 L 512.500 511.500 512.752 255.750 L 513.004 0 256.502 0 L 0 0 0 256.002 M 0.492 256.500 C 0.492 397.300, 0.608 454.751, 0.750 384.170 C 0.892 313.588, 0.892 198.388, 0.750 128.170 C 0.608 57.951, 0.492 115.700, 0.492 256.500 M 235 145.959 C 219.425 149.290, 207.517 154.733, 194.417 164.510 C 182.256 173.586, 170.078 187.061, 164.935 197.130 C 163.309 200.315, 162.493 200.849, 158.291 201.477 C 128.056 206.001, 101.290 230.218, 90.809 262.534 C 87.753 271.955, 87.526 295.916, 90.398 306 C 98.792 335.481, 122.222 358.400, 152 366.257 L 160.500 368.500 262 368.500 C 356.204 368.500, 364.001 368.372, 370.472 366.713 C 396.202 360.118, 417.176 338.476, 422.619 312.906 C 423.742 307.631, 424.056 302.335, 423.711 294.500 C 422.885 275.758, 417.354 263.418, 403.500 249.412 C 392.234 238.022, 381.317 232.188, 366.507 229.643 L 359.514 228.441 357.876 222.471 C 354.005 208.359, 348.257 197.167, 338.917 185.557 C 326.284 169.853, 305.813 155.301, 287.486 148.995 C 272.425 143.814, 250.862 142.566, 235 145.959" stroke="none" fill="black" fill-rule="evenodd"/>
</svg>