<svg id="Capa_1" enable-background="new 0 0 512 512" height="512" viewBox="0 0 512 512" width="512" xmlns="http://www.w3.org/2000/svg"><path d="m168 55.75c-66.168 0-120 53.832-120 120s53.832 120 120 120 120-53.832 120-120-53.832-120-120-120z" fill="#f9a949"/><g fill="#fbe75b"><path d="m168 39.25c-4.142 0-7.5-3.358-7.5-7.5v-16c0-4.142 3.358-7.5 7.5-7.5s7.5 3.358 7.5 7.5v16c0 4.142-3.358 7.5-7.5 7.5z"/><path d="m96.007 58.544c-2.592 0-5.113-1.345-6.502-3.751l-8-13.856c-2.071-3.587-.842-8.174 2.745-10.245s8.174-.843 10.245 2.745l8 13.856c2.071 3.587.842 8.174-2.745 10.245-1.181.682-2.471 1.006-3.743 1.006z"/><path d="m43.286 111.251c-1.272 0-2.562-.324-3.743-1.006l-13.856-8c-3.587-2.071-4.816-6.658-2.745-10.245 2.07-3.587 6.658-4.817 10.245-2.745l13.856 8c3.587 2.071 4.816 6.658 2.745 10.245-1.39 2.406-3.911 3.751-6.502 3.751z"/><path d="m24 183.25h-16c-4.142 0-7.5-3.358-7.5-7.5s3.358-7.5 7.5-7.5h16c4.142 0 7.5 3.358 7.5 7.5s-3.358 7.5-7.5 7.5z"/><path d="m29.443 263.251c-2.592 0-5.113-1.345-6.502-3.751-2.071-3.587-.842-8.174 2.745-10.245l13.856-8c3.587-2.071 8.174-.842 10.245 2.745s.842 8.174-2.745 10.245l-13.856 8c-1.181.682-2.471 1.006-3.743 1.006z"/><path d="m87.993 321.815c-1.272 0-2.562-.324-3.743-1.006-3.587-2.071-4.816-6.658-2.745-10.245l8-13.856c2.071-3.587 6.658-4.817 10.245-2.745 3.587 2.071 4.816 6.658 2.745 10.245l-8 13.856c-1.389 2.406-3.91 3.751-6.502 3.751z"/><path d="m168 343.25c-4.142 0-7.5-3.358-7.5-7.5v-16c0-4.142 3.358-7.5 7.5-7.5s7.5 3.358 7.5 7.5v16c0 4.142-3.358 7.5-7.5 7.5z"/><path d="m248.007 321.815c-2.592 0-5.113-1.345-6.502-3.751l-8-13.856c-2.071-3.587-.842-8.174 2.745-10.245 3.586-2.071 8.174-.842 10.245 2.745l8 13.856c2.071 3.587.842 8.174-2.745 10.245-1.181.682-2.471 1.006-3.743 1.006z"/><path d="m306.557 263.251c-1.272 0-2.562-.324-3.743-1.006l-13.856-8c-3.587-2.071-4.816-6.658-2.745-10.245s6.657-4.817 10.245-2.745l13.856 8c3.587 2.071 4.816 6.658 2.745 10.245-1.389 2.406-3.91 3.751-6.502 3.751z"/><path d="m328 183.25h-16c-4.142 0-7.5-3.358-7.5-7.5s3.358-7.5 7.5-7.5h16c4.142 0 7.5 3.358 7.5 7.5s-3.358 7.5-7.5 7.5z"/><path d="m292.714 111.251c-2.592 0-5.113-1.345-6.502-3.751-2.071-3.587-.842-8.174 2.745-10.245l13.856-8c3.587-2.072 8.174-.843 10.245 2.745 2.071 3.587.842 8.174-2.745 10.245l-13.856 8c-1.181.682-2.47 1.006-3.743 1.006z"/><path d="m239.993 58.544c-1.272 0-2.562-.324-3.743-1.006-3.587-2.071-4.816-6.658-2.745-10.245l8-13.856c2.071-3.587 6.657-4.817 10.245-2.745 3.587 2.071 4.816 6.658 2.745 10.245l-8 13.856c-1.389 2.405-3.91 3.751-6.502 3.751z"/></g><path d="m400 279.75c-7.354 0-14.621.707-21.744 2.109 3.782-10.919 5.744-22.472 5.744-34.109 0-57.346-46.654-104-104-104-54.017 0-98.548 41.395-103.535 94.128-13.051-4.07-26.617-6.128-40.465-6.128-74.991 0-136 61.009-136 136s61.009 136 136 136h264c61.757 0 112-50.243 112-112s-50.243-112-112-112z" fill="#f0eff0"/><path d="m432 455.75h-264c-74.991 0-136-61.009-136-136 0-17.478 3.317-34.194 9.349-49.558-25.484 24.732-41.349 59.325-41.349 97.558 0 74.991 61.009 136 136 136h264c49.203 0 91.097-31.893 106.097-76.092-19.761 17.47-45.71 28.092-74.097 28.092z" fill="#d1ced3"/></svg>